<?xml version="1.0" encoding="UTF-8" standalone="no"?> <!-- Created with Vectornator for iOS (http://vectornator.io/) --><!DOCTYPE svg PUBLIC "-//W3C//DTD SVG 1.1//EN" "http://www.w3.org/Graphics/SVG/1.1/DTD/svg11.dtd">
<svg style="fill-rule:evenodd;clip-rule:evenodd;stroke-linecap:round;stroke-linejoin:round;" xmlns:vectornator="http://vectornator.io" xmlns:xlink="http://www.w3.org/1999/xlink" xmlns="http://www.w3.org/2000/svg" xml:space="preserve" version="1.1" viewBox="0 0 1920 1080">
<metadata>
<vectornator:setting key="DisplayWhiteBackground" value="0"/>
<vectornator:setting key="RulersVisible" value="1"/>
<vectornator:setting key="GridSpacing" value="36"/>
<vectornator:setting key="Units" value="Pixels"/>
<vectornator:setting key="New" value="1"/>
<vectornator:setting key="DynamicGuides" value="0"/>
<vectornator:setting key="SnapToPoints" value="0"/>
<vectornator:setting key="SnapToGrid" value="0"/>
<vectornator:setting key="SnapToGuides" value="1"/>
<vectornator:setting key="SnapToEdges" value="0"/>
</metadata>
<defs/>
<g id="Layer 1" vectornator:layerName="Layer 1">
<path stroke="#000000" stroke-width="1" d="M54.4827+84.375L1847.81+84.375L1847.81+373.592L54.4827+373.592L54.4827+84.375Z" fill="#eca44a" stroke-linecap="butt" opacity="1" stroke-linejoin="round"/>
<path stroke="#000000" stroke-width="1" d="M84.8535+410.467L1794.47+410.467L1794.47+481.545L84.8535+481.545L84.8535+410.467Z" fill="#4acd36" stroke-linecap="butt" opacity="1" stroke-linejoin="round"/>
<path stroke="#000000" stroke-width="1" d="M133.72+371.168L1773.55+371.168L1773.55+412.895L133.72+412.895L133.72+371.168Z" fill="#fb6318" stroke-linecap="butt" opacity="1" stroke-linejoin="round"/>
<path stroke="#000000" stroke-width="1" d="M63.6928+480.228L1840.27+480.228L1840.27+643.172L63.6928+643.172L63.6928+480.228Z" fill="#a43c15" stroke-linecap="butt" opacity="1" stroke-linejoin="round"/>
<path stroke="#000000" stroke-width="1" d="M1555.99+1400.47L1575.97+1400.47L1575.97+1403.99L1555.99+1403.99L1555.99+1400.47Z" fill="#a43c15" stroke-linecap="butt" opacity="1" stroke-linejoin="round"/>
<path stroke="#000000" stroke-width="1" d="M1526.62+1393.42L1669.96+1393.42L1669.96+1402.82L1526.62+1402.82L1526.62+1393.42Z" fill="#a43c15" stroke-linecap="butt" opacity="1" stroke-linejoin="round"/>
<path stroke="#000000" stroke-width="1" d="M45.6296+465.934L1870.76+465.934L1870.76+499.389L45.6296+499.389L45.6296+465.934Z" fill="#ffcf00" stroke-linecap="butt" opacity="1" stroke-linejoin="round"/>
<path stroke="#000000" stroke-width="1" d="M1404.27+1436.29L1608.58+1436.29L1608.58+1437.47L1404.27+1437.47L1404.27+1436.29Z" fill="#ffcf00" stroke-linecap="butt" opacity="1" stroke-linejoin="round"/>
<path stroke="#000000" stroke-width="1" d="M1234.01+1412L1345.59+1412L1345.59+1427.43L1234.01+1427.43L1234.01+1412Z" fill="#ffcf00" stroke-linecap="butt" opacity="1" stroke-linejoin="round"/>
<path stroke="#000000" stroke-width="1" d="M57.7409+629.799L1850.04+629.799L1850.04+667.781L57.7409+667.781L57.7409+629.799Z" fill="#ffcf00" stroke-linecap="butt" opacity="1" stroke-linejoin="round"/>
<path stroke="#000000" stroke-width="1" d="M70.7974+660.55L1836.81+660.55L1836.81+795.972L70.7974+795.972L70.7974+660.55Z" fill="#a43c15" stroke-linecap="butt" opacity="1" stroke-linejoin="round"/>
<path stroke="#000000" stroke-width="1" d="M61.3182+791.224L1859.54+791.224L1859.54+944.342L61.3182+944.342L61.3182+791.224Z" fill="#eca44a" stroke-linecap="butt" opacity="1" stroke-linejoin="round"/>
<path stroke="#000000" stroke-width="1" d="M184.732+140.773L217.98+140.773L217.98+190.409L184.732+190.409L184.732+140.773Z" fill="#f2bb76" stroke-linecap="butt" opacity="1" stroke-linejoin="round"/>
<path stroke="#000000" stroke-width="1" d="M293.945+247.884L325.684+247.884L325.684+291.919L293.945+291.919L293.945+247.884Z" fill="#f2bb76" stroke-linecap="butt" opacity="1" stroke-linejoin="round"/>
<path stroke="#000000" stroke-width="1" d="M469.614+140.773L505.223+140.773L505.223+188.251L469.614+188.251L469.614+140.773Z" fill="#f2bb76" stroke-linecap="butt" opacity="1" stroke-linejoin="round"/>
<path stroke="#000000" stroke-width="1" d="M578.792+237.255L602.693+237.255L602.693+285.577L578.792+285.577L578.792+237.255Z" fill="#f2bb76" stroke-linecap="butt" opacity="1" stroke-linejoin="round"/>
<path stroke="#000000" stroke-width="1" d="M675.956+147.885L706.093+147.885L706.093+193.09L675.956+193.09L675.956+147.885Z" fill="#f2bb76" stroke-linecap="butt" opacity="1" stroke-linejoin="round"/>
<path stroke="#000000" stroke-width="1" d="M777.557+227.353L799.768+227.353L799.768+267.015L777.557+267.015L777.557+227.353Z" fill="#f2bb76" stroke-linecap="butt" opacity="1" stroke-linejoin="round"/>
<path stroke="#000000" stroke-width="1" d="M879.885+290.019L914.788+290.019L914.788+320.956L879.885+320.956L879.885+290.019Z" fill="#f2bb76" stroke-linecap="butt" opacity="1" stroke-linejoin="round"/>
<path stroke="#000000" stroke-width="1" d="M971.901+135.337L999.665+135.337L999.665+175.792L971.901+175.792L971.901+135.337Z" fill="#f2bb76" stroke-linecap="butt" opacity="1" stroke-linejoin="round"/>
<path stroke="#000000" stroke-width="1" d="M1094.06+207.522L1120.24+207.522L1120.24+257.496L1094.06+257.496L1094.06+207.522Z" fill="#f2bb76" stroke-linecap="butt" opacity="1" stroke-linejoin="round"/>
<path stroke="#000000" stroke-width="1" d="M1214.4+274.966L1232.94+274.966L1232.94+323.189L1214.4+323.189L1214.4+274.966Z" fill="#f2bb76" stroke-linecap="butt" opacity="1" stroke-linejoin="round"/>
<path stroke="#000000" stroke-width="1" d="M1285.62+116.945L1303.42+116.945L1303.42+170.36L1285.62+170.36L1285.62+116.945Z" fill="#f2bb76" stroke-linecap="butt" opacity="1" stroke-linejoin="round"/>
<path stroke="#000000" stroke-width="1" d="M1418.41+211.906L1443.64+211.906L1443.64+262.354L1418.41+262.354L1418.41+211.906Z" fill="#f2bb76" stroke-linecap="butt" opacity="1" stroke-linejoin="round"/>
<path stroke="#000000" stroke-width="1" d="M1559.37+271.999L1585.34+271.999L1585.34+308.351L1559.37+308.351L1559.37+271.999Z" fill="#f2bb76" stroke-linecap="butt" opacity="1" stroke-linejoin="round"/>
<path stroke="#000000" stroke-width="1" d="M1595.73+102.107L1626.89+102.107L1626.89+148.104L1595.73+148.104L1595.73+102.107Z" fill="#f2bb76" stroke-linecap="butt" opacity="1" stroke-linejoin="round"/>
<path stroke="#000000" stroke-width="1" d="M1748.55+214.874L1774.52+214.874L1774.52+247.517L1748.55+247.517L1748.55+214.874Z" fill="#f2bb76" stroke-linecap="butt" opacity="1" stroke-linejoin="round"/>
<path stroke="#000000" stroke-width="1" d="M1799+88.0109L1821.26+88.0109L1821.26+128.815L1799+128.815L1799+88.0109Z" fill="#f2bb76" stroke-linecap="butt" opacity="1" stroke-linejoin="round"/>
<path stroke="#000000" stroke-width="1" d="M141.753+275.714L170.742+275.714L170.742+315.109L141.753+315.109L141.753+275.714Z" fill="#f2bb76" stroke-linecap="butt" opacity="1" stroke-linejoin="round"/>
<path stroke="#000000" stroke-width="1" d="M318.66+102.523L348.392+102.523L348.392+126.309L318.66+126.309L318.66+102.523Z" fill="#f2bb76" stroke-linecap="butt" opacity="1" stroke-linejoin="round"/>
</g>
</svg>
